<?xml version="1.0" encoding="UTF-8"?>
<svg xmlns="http://www.w3.org/2000/svg" xmlns:xlink="http://www.w3.org/1999/xlink" width="369.1pt" height="108.56pt" viewBox="0 0 369.1 108.56" version="1.1">
<defs>
<clipPath id="clip1">
  <path d="M 311 1 L 369.101563 1 L 369.101563 76 L 311 76 Z M 311 1 "/>
</clipPath>
<clipPath id="clip2">
  <path d="M 332 101 L 335 101 L 335 108.558594 L 332 108.558594 Z M 332 101 "/>
</clipPath>
<clipPath id="clip3">
  <path d="M 367 101 L 369 101 L 369 108.558594 L 367 108.558594 Z M 367 101 "/>
</clipPath>
</defs>
<g id="surface1">
<path style=" stroke:none;fill-rule:nonzero;fill:rgb(17.999268%,18.798828%,57.299805%);fill-opacity:1;" d="M 0 81.863281 L 11.46875 81.863281 L 11.46875 83.039063 L 6.425781 83.039063 L 6.425781 96.332031 L 5.046875 96.332031 L 5.046875 83.039063 L 0 83.039063 "/>
<path style=" stroke:none;fill-rule:nonzero;fill:rgb(17.999268%,18.798828%,57.299805%);fill-opacity:1;" d="M 12.808594 81.863281 L 14.347656 81.863281 L 22.777344 94.101563 L 22.820313 94.101563 L 22.820313 81.863281 L 24.195313 81.863281 L 24.195313 96.332031 L 22.65625 96.332031 L 14.226563 84.089844 L 14.1875 84.089844 L 14.1875 96.332031 L 12.808594 96.332031 "/>
<path style=" stroke:none;fill-rule:nonzero;fill:rgb(17.999268%,18.798828%,57.299805%);fill-opacity:1;" d="M 28.472656 95.15625 L 33.214844 95.15625 C 35.261719 95.175781 37.023438 94.488281 37.023438 92.175781 C 37.023438 90.332031 35.625 89.378906 33.214844 89.378906 L 28.472656 89.378906 Z M 28.472656 88.203125 L 33.214844 88.203125 C 35.421875 88.203125 36.476563 87.109375 36.476563 85.753906 C 36.476563 83.949219 35.363281 83.039063 33.214844 83.039063 L 28.472656 83.039063 Z M 27.09375 81.863281 L 33.214844 81.863281 C 35.644531 81.863281 37.855469 82.714844 37.855469 85.410156 C 37.855469 86.929688 36.839844 88.328125 35.34375 88.648438 L 35.34375 88.691406 C 37.207031 88.933594 38.402344 90.332031 38.402344 92.21875 C 38.402344 93.59375 37.914063 96.332031 33.214844 96.332031 L 27.09375 96.332031 "/>
<path style=" stroke:none;fill-rule:nonzero;fill:rgb(17.999268%,18.798828%,57.299805%);fill-opacity:1;" d="M 46.34375 96.332031 L 47.722656 96.332031 L 47.722656 81.863281 L 46.34375 81.863281 Z M 46.34375 96.332031 "/>
<path style=" stroke:none;fill-rule:nonzero;fill:rgb(17.999268%,18.798828%,57.299805%);fill-opacity:1;" d="M 50.71875 81.863281 L 52.261719 81.863281 L 60.691406 94.101563 L 60.730469 94.101563 L 60.730469 81.863281 L 62.109375 81.863281 L 62.109375 96.332031 L 60.570313 96.332031 L 52.140625 84.089844 L 52.097656 84.089844 L 52.097656 96.332031 L 50.71875 96.332031 "/>
<path style=" stroke:none;fill-rule:nonzero;fill:rgb(17.999268%,18.798828%,57.299805%);fill-opacity:1;" d="M 63.445313 81.863281 L 74.914063 81.863281 L 74.914063 83.039063 L 69.871094 83.039063 L 69.871094 96.332031 L 68.492188 96.332031 L 68.492188 83.039063 L 63.445313 83.039063 "/>
<path style=" stroke:none;fill-rule:nonzero;fill:rgb(17.999268%,18.798828%,57.299805%);fill-opacity:1;" d="M 76.273438 81.863281 L 86.261719 81.863281 L 86.261719 83.039063 L 77.652344 83.039063 L 77.652344 88.265625 L 85.714844 88.265625 L 85.714844 89.441406 L 77.652344 89.441406 L 77.652344 95.15625 L 86.363281 95.15625 L 86.363281 96.332031 L 76.273438 96.332031 "/>
<path style=" stroke:none;fill-rule:nonzero;fill:rgb(17.999268%,18.798828%,57.299805%);fill-opacity:1;" d="M 100.648438 96.332031 L 99.65625 96.332031 L 99.472656 93.695313 L 99.433594 93.695313 C 98.460938 95.761719 96.515625 96.632813 94.429688 96.632813 C 89.867188 96.632813 87.597656 93.046875 87.597656 89.097656 C 87.597656 85.144531 89.867188 81.558594 94.429688 81.558594 C 97.46875 81.558594 99.941406 83.199219 100.46875 86.359375 L 99.089844 86.359375 C 98.90625 84.699219 97.183594 82.734375 94.429688 82.734375 C 90.597656 82.734375 88.976563 85.933594 88.976563 89.097656 C 88.976563 92.257813 90.597656 95.460938 94.429688 95.460938 C 97.632813 95.460938 99.496094 93.210938 99.433594 90.148438 L 94.511719 90.148438 L 94.511719 88.976563 L 100.648438 88.976563 "/>
<path style=" stroke:none;fill-rule:nonzero;fill:rgb(17.999268%,18.798828%,57.299805%);fill-opacity:1;" d="M 104.683594 88.730469 L 109.828125 88.730469 C 111.511719 88.730469 112.949219 87.679688 112.949219 85.914063 C 112.949219 84.152344 111.894531 83.039063 109.828125 83.039063 L 104.683594 83.039063 Z M 103.304688 81.863281 L 109.929688 81.863281 C 112.320313 81.863281 114.328125 83.015625 114.328125 85.632813 C 114.328125 87.457031 113.375 88.953125 111.511719 89.320313 L 111.511719 89.359375 C 113.394531 89.601563 113.941406 90.898438 114.042969 92.621094 C 114.105469 93.617188 114.105469 95.601563 114.714844 96.332031 L 113.191406 96.332031 C 112.847656 95.761719 112.847656 94.6875 112.808594 94.082031 C 112.6875 92.054688 112.523438 89.804688 109.910156 89.90625 L 104.683594 89.90625 L 104.683594 96.332031 L 103.304688 96.332031 "/>
<path style=" stroke:none;fill-rule:nonzero;fill:rgb(17.999268%,18.798828%,57.299805%);fill-opacity:1;" d="M 118.867188 90.65625 L 124.5625 90.65625 L 121.765625 83.238281 Z M 121.054688 81.863281 L 122.59375 81.863281 L 128.269531 96.332031 L 126.789063 96.332031 L 125.027344 91.832031 L 118.441406 91.832031 L 116.699219 96.332031 L 115.21875 96.332031 "/>
<path style=" stroke:none;fill-rule:nonzero;fill:rgb(17.999268%,18.798828%,57.299805%);fill-opacity:1;" d="M 126.648438 81.863281 L 138.117188 81.863281 L 138.117188 83.039063 L 133.074219 83.039063 L 133.074219 96.332031 L 131.695313 96.332031 L 131.695313 83.039063 L 126.648438 83.039063 "/>
<path style=" stroke:none;fill-rule:nonzero;fill:rgb(17.999268%,18.798828%,57.299805%);fill-opacity:1;" d="M 139.476563 81.863281 L 149.46875 81.863281 L 149.46875 83.039063 L 140.855469 83.039063 L 140.855469 88.265625 L 148.921875 88.265625 L 148.921875 89.441406 L 140.855469 89.441406 L 140.855469 95.15625 L 149.566406 95.15625 L 149.566406 96.332031 L 139.476563 96.332031 "/>
<path style=" stroke:none;fill-rule:nonzero;fill:rgb(17.999268%,18.798828%,57.299805%);fill-opacity:1;" d="M 152.871094 95.15625 L 155.808594 95.15625 C 159.964844 95.175781 161.765625 93.414063 161.765625 89.097656 C 161.765625 84.78125 159.964844 83.015625 155.808594 83.039063 L 152.871094 83.039063 Z M 151.492188 81.863281 L 156.496094 81.863281 C 160.855469 81.964844 163.144531 84.355469 163.144531 89.097656 C 163.144531 93.839844 160.855469 96.226563 156.496094 96.332031 L 151.492188 96.332031 "/>
<path style=" stroke:none;fill-rule:nonzero;fill:rgb(17.999268%,18.798828%,57.299805%);fill-opacity:1;" d="M 171.007813 81.863281 L 172.386719 81.863281 L 172.386719 95.15625 L 180.488281 95.15625 L 180.488281 96.332031 L 171.007813 96.332031 "/>
<path style=" stroke:none;fill-rule:nonzero;fill:rgb(17.999268%,18.798828%,57.299805%);fill-opacity:1;" d="M 181.886719 81.863281 L 191.878906 81.863281 L 191.878906 83.039063 L 183.265625 83.039063 L 183.265625 88.265625 L 191.328125 88.265625 L 191.328125 89.441406 L 183.265625 89.441406 L 183.265625 95.15625 L 191.980469 95.15625 L 191.980469 96.332031 L 181.886719 96.332031 "/>
<path style=" stroke:none;fill-rule:nonzero;fill:rgb(17.999268%,18.798828%,57.299805%);fill-opacity:1;" d="M 195.949219 90.65625 L 201.644531 90.65625 L 198.847656 83.238281 Z M 198.140625 81.863281 L 199.679688 81.863281 L 205.355469 96.332031 L 203.871094 96.332031 L 202.113281 91.832031 L 195.523438 91.832031 L 193.78125 96.332031 L 192.304688 96.332031 "/>
<path style=" stroke:none;fill-rule:nonzero;fill:rgb(17.999268%,18.798828%,57.299805%);fill-opacity:1;" d="M 208.046875 88.730469 L 213.195313 88.730469 C 214.878906 88.730469 216.316406 87.679688 216.316406 85.914063 C 216.316406 84.152344 215.261719 83.039063 213.195313 83.039063 L 208.046875 83.039063 Z M 206.671875 81.863281 L 213.296875 81.863281 C 215.6875 81.863281 217.695313 83.015625 217.695313 85.632813 C 217.695313 87.457031 216.738281 88.953125 214.878906 89.320313 L 214.878906 89.359375 C 216.761719 89.601563 217.308594 90.898438 217.40625 92.621094 C 217.472656 93.617188 217.472656 95.601563 218.078125 96.332031 L 216.558594 96.332031 C 216.214844 95.761719 216.214844 94.6875 216.175781 94.082031 C 216.050781 92.054688 215.890625 89.804688 213.277344 89.90625 L 208.046875 89.90625 L 208.046875 96.332031 L 206.671875 96.332031 "/>
<path style=" stroke:none;fill-rule:nonzero;fill:rgb(17.999268%,18.798828%,57.299805%);fill-opacity:1;" d="M 220.164063 81.863281 L 221.703125 81.863281 L 230.136719 94.101563 L 230.175781 94.101563 L 230.175781 81.863281 L 231.554688 81.863281 L 231.554688 96.332031 L 230.015625 96.332031 L 221.585938 84.089844 L 221.542969 84.089844 L 221.542969 96.332031 L 220.164063 96.332031 "/>
<path style=" stroke:none;fill-rule:nonzero;fill:rgb(17.999268%,18.798828%,57.299805%);fill-opacity:1;" d="M 234.550781 96.332031 L 235.929688 96.332031 L 235.929688 81.863281 L 234.550781 81.863281 Z M 234.550781 96.332031 "/>
<path style=" stroke:none;fill-rule:nonzero;fill:rgb(17.999268%,18.798828%,57.299805%);fill-opacity:1;" d="M 238.929688 81.863281 L 240.46875 81.863281 L 248.898438 94.101563 L 248.9375 94.101563 L 248.9375 81.863281 L 250.316406 81.863281 L 250.316406 96.332031 L 248.777344 96.332031 L 240.347656 84.089844 L 240.308594 84.089844 L 240.308594 96.332031 L 238.929688 96.332031 "/>
<path style=" stroke:none;fill-rule:nonzero;fill:rgb(17.999268%,18.798828%,57.299805%);fill-opacity:1;" d="M 265.574219 96.332031 L 264.582031 96.332031 L 264.398438 93.695313 L 264.359375 93.695313 C 263.386719 95.761719 261.441406 96.632813 259.355469 96.632813 C 254.796875 96.632813 252.527344 93.046875 252.527344 89.097656 C 252.527344 85.144531 254.796875 81.558594 259.355469 81.558594 C 262.394531 81.558594 264.867188 83.199219 265.394531 86.359375 L 264.015625 86.359375 C 263.832031 84.699219 262.109375 82.734375 259.355469 82.734375 C 255.527344 82.734375 253.902344 85.933594 253.902344 89.097656 C 253.902344 92.257813 255.527344 95.460938 259.355469 95.460938 C 262.554688 95.460938 264.421875 93.210938 264.359375 90.148438 L 259.4375 90.148438 L 259.4375 88.976563 L 265.574219 88.976563 "/>
<path style=" stroke:none;fill-rule:nonzero;fill:rgb(17.999268%,18.798828%,57.299805%);fill-opacity:1;" d="M 274.511719 91.570313 C 274.449219 94.546875 276.597656 95.460938 279.234375 95.460938 C 280.753906 95.460938 283.0625 94.628906 283.0625 92.519531 C 283.0625 90.878906 281.421875 90.230469 280.085938 89.90625 L 276.863281 89.117188 C 275.160156 88.691406 273.601563 87.878906 273.601563 85.632813 C 273.601563 84.214844 274.511719 81.558594 278.585938 81.558594 C 281.441406 81.558594 283.953125 83.097656 283.933594 86.058594 L 282.558594 86.058594 C 282.476563 83.847656 280.652344 82.734375 278.605469 82.734375 C 276.71875 82.734375 274.976563 83.464844 274.976563 85.609375 C 274.976563 86.96875 275.992188 87.535156 277.164063 87.820313 L 280.691406 88.691406 C 282.738281 89.238281 284.441406 90.128906 284.441406 92.5 C 284.441406 93.492188 284.035156 96.632813 278.90625 96.632813 C 275.484375 96.632813 272.972656 95.09375 273.132813 91.570313 "/>
<path style=" stroke:none;fill-rule:nonzero;fill:rgb(17.999268%,18.798828%,57.299805%);fill-opacity:1;" d="M 292.6875 95.460938 C 296.496094 95.460938 298.117188 92.257813 298.117188 89.097656 C 298.117188 85.933594 296.496094 82.734375 292.6875 82.734375 C 288.859375 82.734375 287.238281 85.933594 287.238281 89.097656 C 287.238281 92.257813 288.859375 95.460938 292.6875 95.460938 M 292.6875 81.558594 C 297.226563 81.558594 299.496094 85.144531 299.496094 89.097656 C 299.496094 93.046875 297.226563 96.632813 292.6875 96.632813 C 288.128906 96.632813 285.859375 93.046875 285.859375 89.097656 C 285.859375 85.144531 288.128906 81.558594 292.6875 81.558594 "/>
<path style=" stroke:none;fill-rule:nonzero;fill:rgb(17.999268%,18.798828%,57.299805%);fill-opacity:1;" d="M 301.644531 81.863281 L 303.023438 81.863281 L 303.023438 95.15625 L 311.128906 95.15625 L 311.128906 96.332031 L 301.644531 96.332031 "/>
<path style=" stroke:none;fill-rule:nonzero;fill:rgb(17.999268%,18.798828%,57.299805%);fill-opacity:1;" d="M 312.382813 81.863281 L 313.761719 81.863281 L 313.761719 90.820313 C 313.742188 94.183594 315.34375 95.460938 317.996094 95.460938 C 320.671875 95.460938 322.273438 94.183594 322.25 90.820313 L 322.25 81.863281 L 323.628906 81.863281 L 323.628906 91.121094 C 323.628906 94.101563 322.027344 96.632813 317.996094 96.632813 C 313.984375 96.632813 312.382813 94.101563 312.382813 91.121094 "/>
<path style=" stroke:none;fill-rule:nonzero;fill:rgb(17.999268%,18.798828%,57.299805%);fill-opacity:1;" d="M 324.84375 81.863281 L 336.316406 81.863281 L 336.316406 83.039063 L 331.269531 83.039063 L 331.269531 96.332031 L 329.890625 96.332031 L 329.890625 83.039063 L 324.84375 83.039063 "/>
<path style=" stroke:none;fill-rule:nonzero;fill:rgb(17.999268%,18.798828%,57.299805%);fill-opacity:1;" d="M 337.773438 96.332031 L 339.152344 96.332031 L 339.152344 81.863281 L 337.773438 81.863281 Z M 337.773438 96.332031 "/>
<path style=" stroke:none;fill-rule:nonzero;fill:rgb(17.999268%,18.798828%,57.299805%);fill-opacity:1;" d="M 348.230469 95.460938 C 352.039063 95.460938 353.660156 92.257813 353.660156 89.097656 C 353.660156 85.933594 352.039063 82.734375 348.230469 82.734375 C 344.398438 82.734375 342.777344 85.933594 342.777344 89.097656 C 342.777344 92.257813 344.398438 95.460938 348.230469 95.460938 M 348.230469 81.558594 C 352.769531 81.558594 355.039063 85.144531 355.039063 89.097656 C 355.039063 93.046875 352.769531 96.632813 348.230469 96.632813 C 343.671875 96.632813 341.402344 93.046875 341.402344 89.097656 C 341.402344 85.144531 343.671875 81.558594 348.230469 81.558594 "/>
<path style=" stroke:none;fill-rule:nonzero;fill:rgb(17.999268%,18.798828%,57.299805%);fill-opacity:1;" d="M 357.164063 81.863281 L 358.707031 81.863281 L 367.136719 94.101563 L 367.175781 94.101563 L 367.175781 81.863281 L 368.554688 81.863281 L 368.554688 96.332031 L 367.011719 96.332031 L 358.585938 84.089844 L 358.542969 84.089844 L 358.542969 96.332031 L 357.164063 96.332031 "/>
<path style=" stroke:none;fill-rule:nonzero;fill:rgb(17.999268%,18.798828%,57.299805%);fill-opacity:1;" d="M 200.34375 54.320313 C 199.886719 73.589844 187.925781 75.570313 183.054688 75.570313 L 144.597656 75.570313 L 144.597656 62.507813 L 176.609375 62.507813 C 179.019531 62.507813 185.71875 62.636719 185.910156 52.699219 C 186.058594 44.765625 179.023438 43.867188 176.613281 43.867188 L 158.011719 43.867188 C 153.636719 43.867188 149.96875 40.785156 147.019531 37.195313 C 143.871094 33.3125 142.296875 28.183594 142.296875 21.8125 C 142.296875 15.511719 143.871094 10.421875 147.019531 6.539063 C 149.972656 2.949219 153.640625 1.15625 158.019531 1.15625 L 197.324219 1.15625 L 197.324219 14.214844 L 161.886719 14.214844 C 160.214844 14.214844 158.785156 14.914063 157.605469 16.308594 C 156.425781 17.703125 155.835938 19.574219 155.835938 21.921875 C 155.835938 24.34375 156.425781 27.503906 157.605469 28.824219 C 158.785156 30.144531 160.214844 30.804688 161.886719 30.804688 L 183.074219 30.804688 C 187.945313 30.804688 200.855469 32.847656 200.34375 54.320313 "/>
<g clip-path="url(#clip1)" clip-rule="nonzero">
<path style=" stroke:none;fill-rule:nonzero;fill:rgb(17.999268%,18.798828%,57.299805%);fill-opacity:1;" d="M 369.085938 54.320313 C 368.628906 73.589844 356.667969 75.570313 351.796875 75.570313 L 313.339844 75.570313 L 313.339844 62.507813 L 345.351563 62.507813 C 347.761719 62.507813 354.460938 62.636719 354.652344 52.699219 C 354.804688 44.765625 347.765625 43.867188 345.355469 43.867188 L 326.753906 43.867188 C 322.375 43.867188 318.710938 40.785156 315.761719 37.195313 C 312.613281 33.3125 311.039063 28.183594 311.039063 21.8125 C 311.039063 15.511719 312.613281 10.421875 315.761719 6.539063 C 318.714844 2.949219 322.382813 1.15625 326.761719 1.15625 L 366.066406 1.15625 L 366.066406 14.214844 L 330.628906 14.214844 C 328.957031 14.214844 327.527344 14.914063 326.347656 16.308594 C 325.167969 17.703125 324.578125 19.574219 324.578125 21.921875 C 324.578125 24.34375 325.167969 27.503906 326.347656 28.824219 C 327.527344 30.144531 328.957031 30.804688 330.628906 30.804688 L 351.816406 30.804688 C 356.6875 30.804688 369.597656 32.847656 369.085938 54.320313 "/>
</g>
<path style=" stroke:none;fill-rule:nonzero;fill:rgb(17.999268%,18.798828%,57.299805%);fill-opacity:1;" d="M 71.15625 75.570313 L 84.679688 75.570313 L 84.679688 1.125 L 71.15625 1.125 Z M 71.15625 75.570313 "/>
<path style=" stroke:none;fill-rule:nonzero;fill:rgb(17.999268%,18.798828%,57.299805%);fill-opacity:1;" d="M 95.871094 1.125 L 95.871094 51.925781 C 95.871094 51.925781 93.617188 73.371094 111.894531 75.570313 L 138.621094 75.570313 L 138.621094 61.992188 L 119.140625 61.992188 C 119.140625 61.992188 108.675781 64.246094 109.238281 52.085938 L 109.238281 1.125 "/>
<path style=" stroke:none;fill-rule:nonzero;fill:rgb(92.89856%,10.998535%,14.099121%);fill-opacity:1;" d="M 202.546875 75.570313 L 244.328125 6.921875 C 244.328125 6.921875 247.867188 0 256.242188 0 C 264.613281 0 267.59375 6.761719 267.59375 6.761719 L 308.167969 75.570313 L 234.183594 75.570313 L 245.292969 56.515625 L 272.023438 56.515625 L 256.082031 29.0625 L 227.503906 75.570313 L 202.785156 75.195313 "/>
<path style=" stroke:none;fill-rule:nonzero;fill:rgb(92.89856%,10.998535%,14.099121%);fill-opacity:1;" d="M 8.730469 1.117188 L 58.640625 1.117188 C 58.640625 1.117188 66.890625 1.324219 66.890625 9.984375 L 66.890625 35.765625 C 66.890625 35.765625 66.066406 43.808594 59.050781 43.808594 L 54.308594 43.808594 C 54.308594 43.808594 51.835938 45.046875 51.835938 46.902344 L 51.835938 59.484375 C 51.835938 59.484375 53.070313 66.703125 44.820313 66.703125 L 19.042969 66.703125 C 19.042969 66.703125 15.328125 66.289063 15.328125 63.605469 L 15.328125 61.957031 C 15.328125 61.957031 15.535156 59.273438 18.421875 59.273438 L 42.550781 59.273438 C 42.550781 59.273438 45.234375 58.453125 45.234375 55.355469 L 45.234375 42.160156 C 45.234375 42.160156 46.675781 36.382813 52.039063 36.382813 L 58.019531 36.382813 C 58.019531 36.382813 60.082031 36.179688 60.082031 33.496094 L 60.082031 10.191406 C 60.082031 10.191406 59.980469 8.230469 57.09375 8.230469 L 10.792969 8.230469 C 10.792969 8.230469 8.113281 8.335938 8.113281 10.601563 L 8.113281 34.320313 C 8.113281 34.320313 7.699219 36.382813 10.171875 36.382813 L 17.1875 36.382813 C 17.1875 36.382813 22.960938 37.207031 22.960938 42.363281 L 22.960938 48.140625 C 22.960938 48.140625 24.816406 52.265625 27.085938 48.757813 L 34.714844 34.117188 C 34.714844 34.117188 36.160156 31.847656 33.273438 31.847656 L 25.4375 31.847656 C 25.4375 31.847656 19.246094 30.816406 22.753906 26.277344 L 40.902344 10.398438 L 35.335938 21.328125 C 35.335938 21.328125 33.890625 24.628906 36.574219 24.628906 L 45.234375 24.628906 C 45.234375 24.628906 48.535156 25.039063 46.675781 28.339844 L 33.066406 53.089844 C 33.066406 53.089844 30.59375 57.214844 24.609375 57.214844 C 24.609375 57.214844 17.597656 57.832031 15.328125 50.820313 L 15.328125 46.28125 C 15.328125 46.28125 15.328125 44.015625 12.03125 44.015625 L 7.90625 44.015625 C 7.90625 44.015625 0.894531 42.777344 0.894531 35.765625 L 0.894531 8.128906 C 0.894531 8.128906 1.304688 1.117188 8.730469 1.117188 "/>
<path style=" stroke:none;fill-rule:nonzero;fill:rgb(92.89856%,10.998535%,14.099121%);fill-opacity:1;" d="M 44.613281 72.164063 C 44.613281 74.046875 43.125 75.570313 41.285156 75.570313 L 25.464844 75.570313 C 23.628906 75.570313 22.136719 74.046875 22.136719 72.164063 C 22.136719 70.289063 23.628906 68.765625 25.464844 68.765625 L 41.285156 68.765625 C 43.125 68.765625 44.613281 70.289063 44.613281 72.164063 "/>
<g clip-path="url(#clip2)" clip-rule="nonzero">
<path style=" stroke:none;fill-rule:nonzero;fill:rgb(17.999268%,18.798828%,57.299805%);fill-opacity:1;" d="M 333.449219 101.324219 L 334.046875 101.324219 C 333.804688 101.820313 333.613281 102.394531 333.46875 103.054688 C 333.324219 103.714844 333.25 104.394531 333.25 105.09375 C 333.25 105.742188 333.304688 106.367188 333.414063 106.96875 C 333.523438 107.574219 333.671875 108.101563 333.863281 108.558594 L 333.296875 108.558594 C 333.113281 108.121094 332.972656 107.605469 332.863281 107.015625 C 332.757813 106.421875 332.703125 105.804688 332.703125 105.164063 C 332.703125 104.472656 332.765625 103.800781 332.894531 103.144531 C 333.019531 102.488281 333.203125 101.882813 333.449219 101.324219 "/>
</g>
<path style=" stroke:none;fill-rule:nonzero;fill:rgb(17.999268%,18.798828%,57.299805%);fill-opacity:1;" d="M 335.046875 101.5625 L 338.488281 101.5625 L 335.585938 107.125 L 335.136719 106.894531 L 337.640625 102.078125 L 335.046875 102.078125 "/>
<path style=" stroke:none;fill-rule:nonzero;fill:rgb(17.999268%,18.798828%,57.299805%);fill-opacity:1;" d="M 339.566406 103.261719 L 339.050781 103.261719 C 339.066406 102.726563 339.242188 102.285156 339.585938 101.941406 C 339.929688 101.597656 340.351563 101.425781 340.855469 101.425781 C 341.351563 101.425781 341.757813 101.585938 342.066406 101.90625 C 342.371094 102.230469 342.527344 102.609375 342.527344 103.046875 C 342.527344 103.355469 342.453125 103.644531 342.304688 103.914063 C 342.15625 104.183594 341.871094 104.546875 341.449219 105.007813 L 340.101563 106.46875 L 342.601563 106.46875 L 342.601563 106.988281 L 338.917969 106.988281 L 340.988281 104.75 C 341.410156 104.300781 341.683594 103.964844 341.808594 103.746094 C 341.933594 103.527344 341.996094 103.296875 341.996094 103.058594 C 341.996094 102.753906 341.886719 102.488281 341.65625 102.269531 C 341.429688 102.046875 341.152344 101.9375 340.824219 101.9375 C 340.476563 101.9375 340.191406 102.054688 339.960938 102.285156 C 339.730469 102.519531 339.601563 102.84375 339.566406 103.261719 "/>
<path style=" stroke:none;fill-rule:nonzero;fill:rgb(17.999268%,18.798828%,57.299805%);fill-opacity:1;" d="M 345.667969 105.207031 L 345.667969 102.925781 L 344.0625 105.207031 Z M 346.09375 101.425781 L 346.203125 101.425781 L 346.203125 105.207031 L 346.863281 105.207031 L 346.863281 105.726563 L 346.203125 105.726563 L 346.203125 106.988281 L 345.667969 106.988281 L 345.667969 105.726563 L 343.070313 105.726563 "/>
<path style=" stroke:none;fill-rule:nonzero;fill:rgb(17.999268%,18.798828%,57.299805%);fill-opacity:1;" d="M 347.609375 101.5625 L 351.050781 101.5625 L 348.148438 107.125 L 347.695313 106.894531 L 350.203125 102.078125 L 347.609375 102.078125 "/>
<path style=" stroke:none;fill-rule:nonzero;fill:rgb(17.999268%,18.798828%,57.299805%);fill-opacity:1;" d="M 352.25 102.820313 L 351.703125 102.820313 C 351.804688 102.371094 351.996094 102.027344 352.28125 101.785156 C 352.566406 101.546875 352.902344 101.425781 353.292969 101.425781 C 353.574219 101.425781 353.839844 101.488281 354.082031 101.617188 C 354.328125 101.746094 354.515625 101.921875 354.652344 102.140625 C 354.785156 102.359375 354.851563 102.589844 354.851563 102.828125 C 354.851563 103.292969 354.617188 103.664063 354.15625 103.9375 C 354.414063 104.042969 354.628906 104.195313 354.796875 104.402344 C 355.03125 104.6875 355.148438 105.011719 355.148438 105.367188 C 355.148438 105.675781 355.066406 105.96875 354.90625 106.25 C 354.742188 106.527344 354.523438 106.746094 354.242188 106.894531 C 353.960938 107.050781 353.648438 107.125 353.300781 107.125 C 352.835938 107.125 352.445313 106.992188 352.132813 106.722656 C 351.820313 106.453125 351.617188 106.058594 351.519531 105.535156 L 352.054688 105.535156 C 352.148438 105.886719 352.28125 106.140625 352.457031 106.300781 C 352.679688 106.5 352.964844 106.597656 353.3125 106.597656 C 353.703125 106.597656 354.019531 106.476563 354.257813 106.242188 C 354.496094 106.007813 354.613281 105.730469 354.613281 105.414063 C 354.613281 105.203125 354.554688 105.003906 354.4375 104.820313 C 354.316406 104.632813 354.15625 104.496094 353.957031 104.402344 C 353.757813 104.308594 353.445313 104.25 353.027344 104.226563 L 353.027344 103.730469 C 353.273438 103.730469 353.5 103.6875 353.703125 103.597656 C 353.910156 103.511719 354.058594 103.398438 354.148438 103.265625 C 354.242188 103.128906 354.289063 102.980469 354.289063 102.824219 C 354.289063 102.585938 354.195313 102.382813 354.003906 102.210938 C 353.816406 102.039063 353.578125 101.953125 353.289063 101.953125 C 353.054688 101.953125 352.851563 102.019531 352.683594 102.148438 C 352.511719 102.28125 352.367188 102.503906 352.25 102.820313 "/>
<path style=" stroke:none;fill-rule:nonzero;fill:rgb(17.999268%,18.798828%,57.299805%);fill-opacity:1;" d="M 356.4375 102.820313 L 355.890625 102.820313 C 355.988281 102.371094 356.183594 102.027344 356.46875 101.785156 C 356.753906 101.546875 357.089844 101.425781 357.480469 101.425781 C 357.761719 101.425781 358.023438 101.488281 358.269531 101.617188 C 358.515625 101.746094 358.703125 101.921875 358.835938 102.140625 C 358.972656 102.359375 359.039063 102.589844 359.039063 102.828125 C 359.039063 103.292969 358.808594 103.664063 358.34375 103.9375 C 358.601563 104.042969 358.816406 104.195313 358.984375 104.402344 C 359.21875 104.6875 359.335938 105.011719 359.335938 105.367188 C 359.335938 105.675781 359.253906 105.96875 359.09375 106.25 C 358.929688 106.527344 358.707031 106.746094 358.429688 106.894531 C 358.148438 107.050781 357.835938 107.125 357.488281 107.125 C 357.023438 107.125 356.632813 106.992188 356.320313 106.722656 C 356.007813 106.453125 355.804688 106.058594 355.707031 105.535156 L 356.242188 105.535156 C 356.335938 105.886719 356.46875 106.140625 356.644531 106.300781 C 356.867188 106.5 357.152344 106.597656 357.496094 106.597656 C 357.890625 106.597656 358.207031 106.476563 358.445313 106.242188 C 358.683594 106.007813 358.800781 105.730469 358.800781 105.414063 C 358.800781 105.203125 358.742188 105.003906 358.621094 104.820313 C 358.503906 104.632813 358.34375 104.496094 358.144531 104.402344 C 357.945313 104.308594 357.632813 104.25 357.210938 104.226563 L 357.210938 103.730469 C 357.460938 103.730469 357.6875 103.6875 357.890625 103.597656 C 358.097656 103.511719 358.242188 103.398438 358.335938 103.265625 C 358.429688 103.128906 358.476563 102.980469 358.476563 102.824219 C 358.476563 102.585938 358.382813 102.382813 358.191406 102.210938 C 358.003906 102.039063 357.765625 101.953125 357.476563 101.953125 C 357.242188 101.953125 357.039063 102.019531 356.871094 102.148438 C 356.699219 102.28125 356.554688 102.503906 356.4375 102.820313 "/>
<path style=" stroke:none;fill-rule:nonzero;fill:rgb(17.999268%,18.798828%,57.299805%);fill-opacity:1;" d="M 359.871094 105.171875 L 361.898438 105.171875 L 361.898438 104.726563 L 359.871094 104.726563 Z M 359.871094 105.171875 "/>
<path style=" stroke:none;fill-rule:nonzero;fill:rgb(17.999268%,18.798828%,57.299805%);fill-opacity:1;" d="M 362.816406 101.5625 L 363.359375 101.5625 L 363.359375 104.835938 C 363.359375 105.226563 363.367188 105.46875 363.382813 105.5625 C 363.40625 105.777344 363.472656 105.957031 363.570313 106.101563 C 363.667969 106.246094 363.820313 106.363281 364.023438 106.460938 C 364.230469 106.558594 364.433594 106.605469 364.640625 106.605469 C 364.820313 106.605469 364.992188 106.570313 365.15625 106.492188 C 365.324219 106.417969 365.460938 106.3125 365.570313 106.175781 C 365.683594 106.042969 365.765625 105.878906 365.816406 105.6875 C 365.851563 105.546875 365.871094 105.265625 365.871094 104.835938 L 365.871094 101.5625 L 366.414063 101.5625 L 366.414063 104.839844 C 366.414063 105.324219 366.367188 105.714844 366.273438 106.011719 C 366.175781 106.3125 365.988281 106.574219 365.703125 106.792969 C 365.417969 107.015625 365.074219 107.125 364.671875 107.125 C 364.230469 107.125 363.855469 107.019531 363.542969 106.8125 C 363.230469 106.601563 363.023438 106.328125 362.914063 105.980469 C 362.851563 105.769531 362.816406 105.390625 362.816406 104.839844 "/>
<g clip-path="url(#clip3)" clip-rule="nonzero">
<path style=" stroke:none;fill-rule:nonzero;fill:rgb(17.999268%,18.798828%,57.299805%);fill-opacity:1;" d="M 368.140625 108.558594 L 367.542969 108.558594 C 367.785156 108.066406 367.976563 107.488281 368.121094 106.832031 C 368.265625 106.171875 368.335938 105.492188 368.335938 104.792969 C 368.335938 104.140625 368.28125 103.515625 368.175781 102.914063 C 368.066406 102.3125 367.914063 101.78125 367.722656 101.324219 L 368.292969 101.324219 C 368.476563 101.761719 368.617188 102.277344 368.726563 102.871094 C 368.832031 103.464844 368.886719 104.082031 368.886719 104.726563 C 368.886719 105.414063 368.824219 106.085938 368.695313 106.738281 C 368.566406 107.394531 368.382813 108.003906 368.140625 108.558594 "/>
</g>
</g>
</svg>
